<?xml version="1.0" ?><svg id="Layer_2" style="enable-background:new 0 0 1000 1000;" version="1.1" viewBox="0 0 1000 1000" xml:space="preserve" xmlns="http://www.w3.org/2000/svg" xmlns:xlink="http://www.w3.org/1999/xlink"><path d="M480.915,412.209c-3.923-5.858-11.855-7.425-17.716-3.499c-5.858,3.926-7.425,11.858-3.499,17.716  l12.34,18.413l-71.848,48.154l17.08,19.296l68.984-46.237l10.322,15.401c2.463,3.676,6.503,5.661,10.619,5.661  c2.443,0,4.914-0.7,7.097-2.163c5.858-3.926,7.425-11.858,3.499-17.716L480.915,412.209z" style="fill:#231F20;"/><path d="M629.748,404.101l-4.955-1.226c-12.319-3.054-24.792,4.454-27.846,16.773l-28.592,115.339h5.445  c3.963,0,7.753-1.706,10.389-4.689l35.784-40.554c4.954-5.619,10.317-10.777,16.048-15.425l10.501-42.382  C649.575,419.617,642.067,407.155,629.748,404.101z" style="fill:#231F20;"/><path d="M273.005,630.243c-13.259,0-24.006,10.747-24.006,24.006c0,2.584,0.409,5.077,1.175,7.406  c3.116,9.633,12.156,16.6,22.831,16.6c10.675,0,19.715-6.967,22.831-16.6c0.766-2.329,1.174-4.822,1.174-7.406  C297.01,640.989,286.264,630.243,273.005,630.243z" style="fill:#231F20;"/><path d="M715.657,630.243c-13.259,0-24.005,10.747-24.005,24.006c0,2.584,0.408,5.077,1.175,7.406  c3.116,9.633,12.156,16.6,22.831,16.6c10.675,0,19.715-6.967,22.831-16.6c0.766-2.329,1.175-4.822,1.175-7.406  C739.663,640.989,728.916,630.243,715.657,630.243z" style="fill:#231F20;"/><path d="M824.724,564.478c-3.207-5.21-4.597-11.35-3.923-17.427l5.843-53.353  c0.828-7.58-1.348-15.18-6.078-21.166l-14.547-18.438c-5.506-6.977-13.913-11.042-22.8-11.042h-22.892  c-9.781,0-19.491,1.215-28.915,3.595V325.577h16.851c9.309,0,16.855-7.546,16.855-16.855c0-21.721-17.608-39.328-39.328-39.328  H398.906c-21.72,0-39.328,17.607-39.328,39.328c0,9.309,7.546,16.855,16.855,16.855h32.237l-92.393,127.122l-11.319-0.679  c-8.663-0.521-17.274,1.645-24.67,6.19L176.86,521.799c-15.394,9.459-24.771,26.243-24.771,44.313v54.876  c0,2.329,0.439,4.638,1.318,6.813l9.01,22.412c2.788,6.916,9.49,11.441,16.936,11.441h17.652  c3.729,38.695,36.335,68.952,76.001,68.952c39.665,0,72.272-30.257,76-68.952h290.651c3.729,38.695,36.335,68.952,76,68.952  c39.675,0,72.282-30.257,76.001-68.952h30.503c3.698,0,7.232-1.502,9.807-4.148c10.511-10.849,15.945-25.058,15.945-39.39  c0-10.215-2.768-20.501-8.417-29.675L824.724,564.478z M189.027,603.428c-9.896,0-17.918-12.862-17.918-28.728  c0-15.866,8.022-28.728,17.918-28.728s17.918,12.862,17.918,28.728C206.945,590.566,198.923,603.428,189.027,603.428z   M323.283,661.654c-3.595,24.526-24.772,43.414-50.278,43.414c-25.507,0-46.684-18.888-50.279-43.414  c-0.357-2.421-0.542-4.893-0.542-7.406c0-28.02,22.8-50.82,50.82-50.82c28.02,0,50.82,22.8,50.82,50.82  C323.825,656.761,323.641,659.233,323.283,661.654z M632.986,501.236l-5.067,5.741l-30.717,34.813  c-5.925,6.712-14.444,10.563-23.403,10.563H443.607c-8.938,0-17.447-3.831-23.372-10.521l-26.059-29.43l-39.829-44.987  c-3.131-3.535-6.801-6.476-10.831-8.757l96.723-133.08h265.635v130.667l-34.551,16.247  C656.715,479.345,643.671,489.131,632.986,501.236z M765.935,661.654c-3.595,24.526-24.761,43.414-50.279,43.414  c-25.507,0-46.683-18.888-50.279-43.414c-0.358-2.421-0.542-4.893-0.542-7.406c0-28.02,22.8-50.82,50.82-50.82  c28.03,0,50.82,22.8,50.82,50.82C766.477,656.761,766.293,659.233,765.935,661.654z" style="fill:#231F20;"/></svg>